# Blender 3.4.0
# www.blender.org
mtllib cabin_M.mtl
o pCube68
v -0.096414 -1.010152 0.130924
v 0.096414 -1.010152 0.130924
v -0.096414 -1.010152 -0.130925
v 0.096414 -1.010152 -0.130925
v -0.077137 -0.915016 0.374517
v 0.077137 -0.915016 0.374517
v 0.096414 -0.609571 0.468128
v -0.096414 -0.609571 0.468128
v -0.096414 -0.609570 -0.468129
v 0.096414 -0.609570 -0.468129
v 0.077137 -0.915015 -0.374518
v -0.077137 -0.915015 -0.374518
v 0.208351 -0.920605 -0.104745
v 0.208351 -0.920605 0.104744
v 0.260428 -0.609571 -0.130925
v 0.260428 -0.609571 0.130924
v 0.204879 -0.609571 0.365904
v 0.178308 -0.885675 0.318447
v 0.178308 -0.885671 -0.318448
v 0.204879 -0.609570 -0.365904
v -0.208351 -0.920605 -0.104745
v -0.208351 -0.920605 0.104744
v -0.260428 -0.609571 0.130924
v -0.260428 -0.609571 -0.130925
v -0.178308 -0.885675 0.318447
v -0.204879 -0.609571 0.365904
v -0.204879 -0.609570 -0.365904
v -0.178308 -0.885671 -0.318448
v -0.085327 -0.609571 0.414277
v 0.085327 -0.609571 0.414277
v 0.085327 -0.609570 -0.414278
v -0.085327 -0.609570 -0.414278
v 0.230471 -0.609571 0.115860
v 0.230471 -0.609571 -0.115861
v 0.181311 -0.609571 0.323813
v 0.181311 -0.609570 -0.323813
v -0.230471 -0.609571 -0.115861
v -0.230471 -0.609571 0.115860
v -0.181311 -0.609571 0.323813
v -0.181311 -0.609570 -0.323813
v -0.220621 -0.769092 0.000000
v 0.220621 -0.769092 0.000000
v -0.078096 -0.769069 0.379169
v 0.078096 -0.769069 0.379169
v 0.078096 -0.769069 -0.379169
v -0.078096 -0.769069 -0.379169
v 0.165946 -0.769069 0.296369
v 0.165946 -0.769069 -0.296370
v -0.165946 -0.769069 0.296369
v -0.165946 -0.769069 -0.296370
v 0.260428 -0.609571 0.057907
v 0.260428 -0.609571 -0.057908
v 0.230471 -0.609571 -0.051247
v 0.230471 -0.609571 0.051247
v -0.260428 -0.609571 0.057907
v -0.260428 -0.609571 -0.057908
v -0.230471 -0.609571 0.051247
v -0.230471 -0.609571 -0.051247
v 0.259985 -0.572503 0.033146
v 0.260104 -0.575831 -0.037840
v 0.230250 -0.572156 -0.026058
v 0.230293 -0.574468 0.029632
v -0.260103 -0.575831 0.037838
v -0.259986 -0.572503 -0.033148
v -0.230250 -0.572156 0.026058
v -0.230293 -0.574468 -0.029634
v 0.250442 -0.201743 0.021975
v 0.240457 -0.201743 -0.021100
v -0.240457 -0.201743 0.021099
v -0.250442 -0.201743 -0.021978
v -0.001871 -0.101564 0.101612
v -0.024626 0.022683 0.118926
v 0.024626 0.022683 0.118926
v -0.024626 0.022684 -0.118926
v 0.024626 0.022684 -0.118926
v 0.001871 -0.101563 -0.101612
v 0.325972 -0.278607 -0.118927
v 0.327145 -0.267930 0.120742
v 0.325972 -0.243582 -0.118927
v -0.325972 -0.278607 -0.118927
v -0.325972 -0.278607 0.118926
v -0.325972 -0.243583 0.118926
v -0.325972 -0.243582 -0.118927
v 0.000000 -0.166312 0.585208
v -0.000000 -0.126617 0.582195
v 0.233682 -0.226600 0.419179
v -0.233682 -0.226600 0.419179
v -0.000000 -0.126617 -0.582195
v -0.000000 -0.166311 -0.585208
v 0.233682 -0.226598 -0.419179
v -0.233682 -0.226598 -0.419179
vn -0.0000 -0.2930 0.9561
vn -0.0000 -0.2930 -0.9561
vn -0.0000 -1.0000 -0.0000
vn 0.9863 -0.1651 -0.0000
vn -0.9863 -0.1651 -0.0000
vn -0.0000 -0.9315 0.3638
vn 0.9682 -0.1544 0.1967
vn -0.6967 0.7173 -0.0000
vn 0.6963 0.7178 0.0012
vn -0.0000 1.0000 -0.0001
vn -0.9682 -0.1544 0.1967
vn -0.0000 1.0000 0.0001
vn 0.9682 -0.1544 -0.1967
vn -0.0000 -0.9315 -0.3638
vn -0.9682 -0.1544 -0.1967
vn 0.6247 -0.7809 -0.0000
vn -0.5104 0.8529 -0.1098
vn 0.6066 -0.2322 0.7603
vn 0.6066 -0.2323 0.7603
vn 0.6402 -0.7387 0.2107
vn 0.6402 -0.7387 -0.2108
vn 0.6066 -0.2323 -0.7603
vn -0.5104 0.8529 0.1098
vn -0.6247 -0.7809 -0.0000
vn -0.4372 -0.8255 0.3570
vn -0.6066 -0.2322 0.7603
vn -0.6066 -0.2323 0.7603
vn 0.5104 0.8529 -0.1098
vn 0.5104 0.8529 0.1098
vn -0.6066 -0.2323 -0.7603
vn -0.6402 -0.7387 -0.2108
vn 0.4372 -0.8255 0.3570
vn 0.4373 -0.8254 -0.3570
vn -0.4373 -0.8254 -0.3570
vn -0.6402 -0.7387 0.2107
vn -0.0000 1.0000 -0.0000
vn -0.0000 0.2150 -0.9766
vn -0.0000 0.2150 0.9766
vn -0.9816 0.1381 -0.1316
vn -0.9816 0.1381 0.1315
vn -0.6737 0.1879 -0.7148
vn -0.9646 0.1322 -0.2280
vn -0.9646 0.1322 0.2280
vn -0.6737 0.1879 0.7148
vn 0.9816 0.1382 0.1317
vn 0.9816 0.1381 -0.1316
vn 0.9646 0.1322 -0.2280
vn 0.6737 0.1879 -0.7148
vn 0.6737 0.1879 0.7148
vn 0.9646 0.1322 0.2280
vn 0.1712 0.9528 0.2509
vn 0.7784 0.6221 0.0838
vn 0.4956 -0.4758 -0.7266
vn 0.7784 0.6221 -0.0838
vn -0.0000 -0.0000 -0.0000
vn -0.1712 0.9528 -0.2509
vn -0.7784 0.6221 -0.0838
vn -0.4956 -0.4758 0.7266
vn -0.7784 0.6221 0.0838
vn 0.6266 0.7757 0.0751
vn 0.3002 0.9107 -0.2837
vn 0.9999 0.0120 -0.0000
vn 0.9999 0.0100 0.0008
vn 0.7278 0.2115 0.6524
vn 0.9998 0.0169 -0.0063
vn -0.1757 0.4881 -0.8549
vn -0.2157 0.5188 -0.8272
vn -0.2960 0.3212 -0.8996
vn -0.8663 0.1361 -0.4806
vn -1.0000 -0.0059 -0.0000
vn -1.0000 -0.0052 0.0003
vn -0.9999 0.0095 0.0083
vn -0.1699 0.5325 0.8292
vn -0.1653 0.5365 0.8275
vn -0.1379 0.2852 0.9485
vn -0.9999 0.0119 -0.0000
vn -0.9999 0.0100 -0.0008
vn -0.7278 0.2115 -0.6524
vn -0.9998 0.0169 0.0063
vn 0.1757 0.4882 0.8549
vn 0.2157 0.5188 0.8272
vn 0.2959 0.3212 0.8996
vn 0.8663 0.1361 0.4806
vn 1.0000 -0.0059 -0.0000
vn 1.0000 -0.0052 -0.0003
vn 0.9999 0.0095 -0.0083
vn 0.1699 0.5325 -0.8292
vn 0.1653 0.5365 -0.8276
vn 0.1379 0.2852 -0.9485
vn 0.1215 0.8419 0.5258
vn -0.1236 0.8449 -0.5205
vn -0.1215 0.8419 -0.5258
vn 0.1236 0.8449 0.5205
vn -0.3899 -0.9205 0.0260
vn 0.5205 -0.8531 0.0355
vn 1.0000 -0.0000 -0.0049
vn -1.0000 -0.0000 -0.0000
vn 0.0189 -0.9998 -0.0015
vn 0.0026 -0.9999 0.0105
vn -0.0000 0.0757 -0.9971
vn -0.3673 -0.9298 0.0245
vn 0.0003 -0.5139 -0.8578
vn 0.6621 0.7494 -0.0000
vn 0.6725 0.7397 0.0239
vn 0.6820 0.7298 0.0471
vn 0.6909 0.7196 0.0697
vn -0.0000 0.0757 0.9971
vn 0.0354 -0.5669 0.8230
vn 0.7326 -0.4543 0.5068
vn 0.4779 -0.8784 0.0028
vn 0.4794 -0.8776 -0.0000
vn 0.3673 -0.9298 -0.0245
vn -0.6621 0.7494 -0.0000
vn 0.3731 -0.9274 0.0250
vn -0.0000 0.9518 0.3067
vn -0.3052 0.9134 0.2693
vn -0.5232 0.8193 0.2344
vn 0.6945 -0.5742 0.4335
vn 0.0114 -0.9973 -0.0728
vn 0.6136 0.7626 0.2048
vn 0.6206 0.7560 0.2079
vn -0.9053 0.3071 0.2935
vn -0.6244 0.7430 0.2410
vn -0.9559 -0.0000 0.2938
vn 0.4368 -0.8990 -0.0321
vn -0.0000 0.9518 -0.3067
vn 0.3052 0.9134 -0.2693
vn 0.5232 0.8193 -0.2344
vn 0.9053 0.3071 -0.2935
vn 0.6245 0.7429 -0.2410
vn 0.9559 -0.0000 -0.2938
vn -0.4368 -0.8990 0.0321
vn -0.0027 -0.9978 0.0656
vn 0.4326 -0.9011 0.0305
vn -0.9559 -0.0000 -0.2938
vn -0.8686 0.3862 -0.3104
vn -0.6233 0.7482 -0.2272
vn -0.5937 0.7721 -0.2266
vn -0.6206 0.7560 -0.2079
vt 0.162137 0.394785
vt 0.257631 0.394785
vt 0.162137 0.296284
vt 0.257631 0.296284
vt 0.170482 0.486420
vt 0.142059 0.513326
vt 0.163951 0.591595
vt 0.249286 0.486420
vt 0.042756 0.636041
vt 0.921758 0.000028
vt 0.015391 0.538207
vt 0.829767 0.000028
vt 0.377012 0.055028
vt 0.829767 0.328948
vt 0.404376 0.152862
vt 0.921758 0.328948
vt 0.277709 0.177744
vt 0.249286 0.204650
vt 0.255817 0.099474
vt 0.170482 0.204650
vt 0.292707 0.306133
vt 0.292707 0.384937
vt 0.419767 0.296284
vt 0.000000 0.000000
vt 1.000000 0.210483
vt 0.419768 0.394785
vt 0.000000 0.000000
vt 1.000000 0.118493
vt 0.419768 0.483179
vt 0.058147 0.691069
vt 0.973499 0.035941
vt 0.166402 0.646254
vt 0.303971 0.465327
vt 0.303971 0.225742
vt 0.419768 0.207890
vt 0.973499 0.293035
vt 0.127060 0.306133
vt 0.127060 0.384937
vt 0.000000 0.394785
vt 0.000000 0.000028
vt 0.751525 0.118493
vt 0.000000 0.296284
vt 0.000000 0.000028
vt 0.751525 0.210483
vt 0.115796 0.465327
vt 0.000000 0.483179
vt 0.778025 0.035941
vt 0.000000 0.207890
vt 0.361621 0.000000
vt 0.778025 0.293035
vt 0.253366 0.044815
vt 0.115796 0.225742
vt 0.835058 0.018947
vt 0.979901 0.660438
vt 0.916466 0.018947
vt 0.956882 0.748164
vt 0.979901 0.342097
vt 0.916466 0.310029
vt 0.979901 0.660438
vt 0.835058 0.310029
vt 0.956882 0.748164
vt 0.979901 0.342097
vt 0.979901 0.456752
vt 0.985708 0.123784
vt 0.979901 0.545783
vt 0.985708 0.205192
vt 0.962256 0.050728
vt 0.979901 0.376855
vt 0.962256 0.278248
vt 0.979901 0.625680
vt 0.979901 0.456752
vt 0.765816 0.205192
vt 0.979901 0.545783
vt 0.765816 0.123784
vt 0.789268 0.050728
vt 0.979901 0.625680
vt 0.789268 0.278248
vt 0.979901 0.376855
vt 0.776575 0.164862
vt 0.913353 0.501268
vt 0.977832 0.164862
vt 0.913353 0.501267
vt 0.839949 0.031656
vt 0.913353 0.646949
vt 0.914458 0.031656
vt 0.892285 0.727241
vt 0.913353 0.355586
vt 0.914458 0.298070
vt 0.913353 0.646949
vt 0.839949 0.298070
vt 0.892285 0.727241
vt 0.913353 0.355586
vt 0.956367 0.060744
vt 0.913353 0.387398
vt 0.956367 0.268982
vt 0.913353 0.615137
vt 0.798040 0.060744
vt 0.913353 0.615137
vt 0.798040 0.268982
vt 0.913353 0.387398
vt 0.000000 0.000000
vt 1.000000 0.144144
vt 0.150305 0.000028
vt 0.014154 0.050086
vt 0.000000 0.000000
vt 1.000000 0.184832
vt 0.192881 0.000028
vt 0.419978 0.154122
vt 0.985708 0.182492
vt 0.405823 0.154122
vt 0.100203 0.050086
vt 0.985708 0.146484
vt 0.137882 0.050086
vt 0.000000 0.050086
vt 0.000000 0.000028
vt 0.751525 0.144144
vt 0.237973 0.000028
vt 0.185376 0.012818
vt 0.000000 0.000028
vt 0.751525 0.184832
vt 0.195396 0.000028
vt 0.235478 0.162919
vt 0.765816 0.146484
vt 0.199531 0.012818
vt 0.641301 0.404624
vt 0.765816 0.182492
vt 0.678979 0.404624
vt 0.249632 0.162919
vt 0.159817 0.013965
vt 0.014154 0.063277
vt 0.185230 0.012922
vt 0.419978 0.141918
vt 0.405823 0.140315
vt 0.109650 0.064674
vt 0.129786 0.063819
vt 0.000000 0.063084
vt 0.230322 0.012922
vt 0.185376 0.025022
vt 0.204908 0.013965
vt 0.235478 0.149728
vt 0.199531 0.026625
vt 0.650747 0.419212
vt 0.670884 0.418357
vt 0.249632 0.149921
vt 0.163192 0.162838
vt 0.126477 0.212896
vt 0.009436 0.204180
vt 0.179994 0.162838
vt 0.410541 0.000028
vt 0.111608 0.212896
vt 0.225086 0.162838
vt 0.194813 0.166912
vt 0.652705 0.567434
vt 0.208283 0.162838
vt 0.667575 0.567434
vt 0.240196 0.008825
vt 0.584525 0.258706
vt 0.263735 0.718250
vt 0.681559 0.656888
vt 0.268939 0.741948
vt 0.681548 0.770480
vt 0.179454 0.736759
vt 0.681557 0.767461
vt 0.184658 0.760458
vt 0.681567 0.659907
vt 0.586414 0.170250
vt 0.507871 0.659876
vt 0.750085 0.170250
vt 0.750085 0.258706
vt 0.514007 0.770451
vt 0.528063 0.659880
vt 0.420854 0.170250
vt 0.507860 0.767457
vt 0.507862 0.656884
vt 0.420854 0.258706
vt 0.528054 0.656884
vt 0.528052 0.767458
vt 0.445790 0.690688
vt 0.585469 0.428928
vt 0.428524 0.694481
vt 0.593590 0.983247
vt 0.593642 0.444103
vt 0.495620 0.797017
vt 0.702888 0.370183
vt 0.537811 0.909805
vt 0.446481 0.573265
vt 0.537849 0.517534
vt 0.468051 0.370183
vt 0.019868 0.784227
vt 0.593685 0.447109
vt 0.593632 0.980242
vt 0.580004 0.444102
vt 0.579950 0.983246
vt 0.585469 0.000028
vt 0.537879 0.520531
vt 0.542564 0.518961
vt 0.702888 0.058773
vt 0.468051 0.058773
vt 0.542527 0.908378
vt 0.537841 0.906808
s 1
usemtl paal.001
f 5/6/1 6/7/1 8/11/1
f 8/11/1 6/7/1 7/9/1
f 9/13/2 10/15/2 12/19/2
f 12/19/2 10/15/2 11/17/2
f 3/3/3 4/4/3 1/1/3
f 1/1/3 4/4/3 2/2/3
f 14/22/4 13/21/4 16/26/4
f 16/26/4 13/21/4 15/23/4
f 21/37/5 22/38/5 24/42/5
f 24/42/5 22/38/5 23/39/5
f 1/1/6 2/2/6 5/5/6
f 5/5/6 2/2/6 6/8/6
f 14/22/7 16/26/7 18/33/7
f 18/33/7 16/26/7 17/29/7
f 42/81/8 41/79/9 44/85/10
f 44/85/10 41/79/9 43/83/10
f 22/38/11 25/45/11 23/39/11
f 23/39/11 25/45/11 26/46/11
f 41/79/9 42/81/8 46/90/12
f 46/90/12 42/81/8 45/88/12
f 13/21/13 19/34/13 15/23/13
f 15/23/13 19/34/13 20/35/13
f 4/4/14 3/3/14 11/18/14
f 11/18/14 3/3/14 12/20/14
f 21/37/15 24/42/15 28/52/15
f 28/52/15 24/42/15 27/48/15
f 2/2/16 4/4/16 14/22/16
f 14/22/16 4/4/16 13/21/16
f 44/85/10 47/93/17 42/81/8
f 6/7/18 18/32/19 7/9/19
f 7/9/19 18/32/19 17/30/19
f 18/33/20 2/2/20 14/22/20
f 4/4/21 19/34/21 13/21/21
f 11/17/22 10/15/22 19/34/22
f 19/34/22 10/15/22 20/35/22
f 45/88/12 42/81/8 48/95/23
f 3/3/24 1/1/24 21/37/24
f 21/37/24 1/1/24 22/38/24
f 1/1/25 5/5/25 25/45/25
f 5/6/26 8/11/27 25/45/27
f 25/45/27 8/11/27 26/46/27
f 43/83/10 41/79/9 49/97/28
f 46/90/12 50/99/29 41/79/9
f 12/19/30 28/51/30 9/13/30
f 9/13/30 28/51/30 27/49/30
f 28/52/31 3/3/31 21/37/31
f 6/8/32 2/2/32 18/33/32
f 4/4/33 11/18/33 19/34/33
f 12/20/34 3/3/34 28/52/34
f 1/1/35 25/45/35 22/38/35
f 8/12/36 7/10/36 29/53/36
f 29/53/36 7/10/36 30/55/36
f 10/16/36 9/14/36 31/58/36
f 31/58/36 9/14/36 32/60/36
f 7/10/36 17/31/36 30/55/36
f 30/55/36 17/31/36 35/67/36
f 17/31/36 16/28/36 35/67/36
f 35/67/36 16/28/36 33/64/36
f 20/36/36 36/69/36 15/25/36
f 15/25/36 36/69/36 34/66/36
f 10/16/36 31/58/36 20/36/36
f 20/36/36 31/58/36 36/69/36
f 26/47/36 39/75/36 23/41/36
f 23/41/36 39/75/36 38/74/36
f 8/12/36 29/53/36 26/47/36
f 26/47/36 29/53/36 39/75/36
f 9/14/36 27/50/36 32/60/36
f 32/60/36 27/50/36 40/77/36
f 27/50/36 24/44/36 40/77/36
f 40/77/36 24/44/36 37/72/36
f 29/54/37 30/56/37 43/84/37
f 43/84/37 30/56/37 44/86/37
f 31/59/38 32/61/38 45/89/38
f 45/89/38 32/61/38 46/91/38
f 33/63/39 34/65/40 42/82/8
f 30/57/41 35/68/41 44/87/41
f 44/87/41 35/68/41 47/94/41
f 35/68/42 33/63/39 47/94/17
f 47/94/17 33/63/39 42/82/8
f 36/70/43 48/96/23 34/65/40
f 34/65/40 48/96/23 42/82/8
f 31/59/44 45/89/44 36/70/44
f 36/70/44 45/89/44 48/96/44
f 37/71/45 38/73/46 41/80/9
f 39/76/47 49/98/28 38/73/46
f 38/73/46 49/98/28 41/80/9
f 29/54/48 43/84/48 39/76/48
f 39/76/48 43/84/48 49/98/48
f 32/62/49 40/78/49 46/92/49
f 46/92/49 40/78/49 50/100/49
f 40/78/50 37/71/45 50/100/29
f 50/100/29 37/71/45 41/80/9
f 51/101/51 16/27/52 52/105/53
f 16/27/52 15/24/54 52/105/53
f 15/25/36 34/66/36 52/106/36
f 52/106/36 34/66/36 53/109/36
f 34/66/55 33/64/55 53/109/55
f 33/64/55 54/112/55 53/109/55
f 16/28/36 51/102/36 33/64/36
f 33/64/36 51/102/36 54/112/36
f 56/119/56 24/43/57 55/115/58
f 24/43/57 23/40/59 55/115/58
f 23/41/36 38/74/36 55/116/36
f 55/116/36 38/74/36 57/123/36
f 38/74/55 37/72/60 57/123/55
f 37/72/60 58/126/61 57/123/55
f 24/44/36 56/120/36 37/72/36
f 37/72/36 56/120/36 58/126/36
f 51/103/62 52/107/63 59/129/64
f 59/129/64 52/107/63 60/131/65
f 52/108/66 53/110/67 60/132/68
f 60/132/68 53/110/67 61/133/69
f 53/111/70 54/113/71 61/134/69
f 61/134/69 54/113/71 62/135/72
f 51/104/73 59/130/64 54/114/74
f 54/114/74 59/130/64 62/136/75
f 56/121/76 55/117/77 64/139/78
f 64/139/78 55/117/77 63/137/79
f 55/118/80 57/124/81 63/138/82
f 63/138/82 57/124/81 65/141/83
f 57/125/84 58/127/85 65/142/83
f 65/142/83 58/127/85 66/143/86
f 56/122/87 64/140/78 58/128/88
f 58/128/88 64/140/78 66/144/89
f 59/129/64 60/131/65 67/145/90
f 67/145/90 60/131/65 68/148/91
f 60/132/68 61/133/69 68/149/91
f 61/134/69 62/135/72 68/150/91
f 68/150/91 62/135/72 67/146/90
f 62/136/75 59/130/64 67/147/90
f 64/139/78 63/137/79 70/154/92
f 70/154/92 63/137/79 69/151/93
f 63/138/82 65/141/83 69/152/93
f 65/142/83 66/143/86 69/153/93
f 69/153/93 66/143/86 70/155/92
f 66/144/89 64/140/78 70/156/92
f 72/158/36 73/160/36 74/162/36
f 74/162/36 73/160/36 75/164/36
f 78/170/94 77/167/95 79/171/96
f 80/173/97 81/174/97 83/177/97
f 83/177/97 81/174/97 82/176/97
f 71/157/98 76/166/99 78/169/94
f 78/169/94 76/166/99 77/168/95
f 88/190/100 90/195/101 89/192/102
f 75/165/103 73/161/104 79/171/105
f 79/171/105 73/161/104 78/170/106
f 85/180/107 84/178/108 86/183/109
f 76/166/99 71/157/98 80/172/110
f 80/172/110 71/157/98 81/175/111
f 85/180/107 87/186/112 84/178/108
f 72/159/113 74/163/113 82/176/113
f 82/176/113 74/163/113 83/177/113
f 88/191/100 89/193/102 91/200/114
f 73/160/115 72/158/116 85/180/117
f 78/169/118 86/184/109 71/157/119
f 71/157/119 86/184/109 84/179/108
f 78/170/118 73/161/120 86/185/109
f 86/185/109 73/161/120 85/181/121
f 82/176/122 87/187/123 72/159/116
f 72/159/116 87/187/123 85/182/117
f 81/174/124 87/187/123 82/176/122
f 81/175/125 71/157/119 87/188/112
f 87/188/112 71/157/119 84/179/108
f 74/162/126 75/164/127 88/189/128
f 79/171/129 90/195/130 75/165/127
f 75/165/127 90/195/130 88/190/128
f 77/167/131 90/196/130 79/171/129
f 77/168/132 76/166/133 90/197/101
f 90/197/101 76/166/133 89/194/102
f 80/172/134 91/198/114 76/166/133
f 76/166/133 91/198/114 89/194/102
f 80/173/135 83/177/136 91/199/137
f 83/177/136 74/163/138 91/200/137
f 91/200/137 74/163/138 88/191/139
