# Blender 3.4.0
# www.blender.org
mtllib WindmillStand_L.mtl
o Windturbine_Support_Cube
v 0.179904 5.742507 -0.193211
v 0.174925 6.061202 -0.196329
v -0.189103 5.744912 -0.192946
v -0.179961 5.742515 0.252444
v -0.168232 6.052978 -0.194791
v -0.175069 6.061129 0.254461
v 0.189106 5.744925 0.252316
v 0.168083 6.053044 0.254758
v 0.026925 5.734255 -0.122501
v -0.145278 5.734263 -0.017376
v -0.074445 5.734230 0.100083
v 0.085769 5.734247 0.100888
v 0.137605 5.734231 -0.022698
v 0.081708 0.000009 -0.152493
v 0.187069 0.000057 0.066061
v -0.082883 0.000004 0.154669
v -0.186024 0.000003 0.030419
v -0.153060 0.000015 -0.105508
vn -0.0080 -0.9973 -0.0731
vn -0.0051 -1.0000 0.0034
vn -0.5940 -0.5514 -0.5858
vn 0.5819 -0.5679 -0.5821
vn 0.5945 -0.5583 0.5787
vn -0.5755 -0.5669 0.5894
vn 0.0070 -0.9996 0.0283
vn -0.5672 0.5901 0.5746
vn -0.5618 0.5820 -0.5879
vn -0.3120 0.0053 0.9501
vn 0.7547 -0.6033 0.2578
vn 0.5504 0.0139 0.8348
vn -0.9802 0.0164 -0.1974
vn -0.5535 -0.6019 -0.5757
vn -0.7777 -0.6096 0.1534
vn 0.2118 0.0126 -0.9772
vn 0.3128 -0.5702 -0.7596
vn 0.5659 0.5897 -0.5763
vn 0.5605 0.5820 0.5892
vn 0.9945 0.0105 -0.1041
vn -0.4591 0.0102 0.8883
vn 0.0001 -1.0000 -0.0000
vt 0.975568 0.256282
vt 0.976588 0.268145
vt 0.996142 0.958717
vt 0.972567 0.206195
vt 0.913338 0.715548
vt 0.995993 0.996888
vt 0.911562 0.118923
vt 0.916642 0.255558
vt 0.916488 0.268376
vt 0.917512 0.344510
vt 0.911503 0.046317
vt 0.975578 0.186175
vt 0.949745 0.118967
vt 0.920524 0.206364
vt 0.945326 0.715548
vt 0.949673 0.046466
vt 0.972610 0.136111
vt 0.945326 0.793771
vt 0.977621 0.344281
vt 0.916644 0.185456
vt 0.923536 0.958776
vt 0.920585 0.136251
vt 0.913338 0.793771
vt 0.923492 0.996960
vt 0.744084 0.005007
vt 0.951203 0.283203
vt 0.840203 0.005008
vt 0.925764 0.299063
vt 0.720415 0.004996
vt 0.895157 0.005017
vt 0.934547 0.317855
vt 0.879889 0.005009
vt 0.815510 0.004994
vt 0.960221 0.315805
vt 0.862497 0.005008
vt 0.789946 0.005004
vt 0.969899 0.297495
vt 0.851203 0.005019
vt 0.753908 0.997119
vt 0.835961 0.997134
vt 0.915170 0.824494
vt 0.779190 0.997115
vt 0.861309 0.997139
vt 0.945122 0.805785
vt 0.875644 0.997134
vt 0.817507 0.997119
vt 0.965902 0.842826
vt 0.890728 0.997150
vt 0.950728 0.863627
vt 0.906180 0.997134
vt 0.715570 0.997115
vt 0.928557 0.860421
s 1
usemtl Windmill.002
f 9/26/1 10/28/2 3/9/3
f 1/2/4 7/19/5 4/10/6 3/9/3 10/28/2 11/31/7 12/34/7 13/37/7 9/26/1
f 6/16/8 5/13/9 3/7/3 4/11/6
f 16/46/10 15/42/11 12/36/12
f 10/30/13 18/50/14 17/48/15
f 10/29/13 9/25/16 18/51/14
f 14/39/17 18/51/14 9/25/16
f 5/14/9 2/4/18 1/1/4 3/8/3
f 8/22/19 6/17/8 4/12/6 7/20/5
f 3/9/3 1/2/4 9/26/1
f 6/18/8 8/23/19 2/5/18 5/15/9
f 2/6/18 8/24/19 7/21/5 1/3/4
f 14/40/17 9/27/16 13/38/20 15/43/11
f 10/30/13 17/48/15 16/45/10 11/32/21
f 13/38/20 12/35/12 15/43/11
f 16/46/10 12/36/12 11/33/21
f 18/52/14 14/41/17 15/44/11 16/47/22 17/49/15
