# Blender 3.4.0
# www.blender.org
mtllib WindmillStand_M.mtl
o Windturbine_Support_Cube
v 0.179904 5.742507 -0.193210
v 0.203961 5.996258 -0.192262
v -0.190919 5.743561 -0.192666
v -0.179961 5.742515 0.252445
v -0.167951 6.053322 -0.194825
v 0.092443 6.094228 -0.196393
v -0.204149 5.996133 0.250902
v 0.192066 5.746269 0.251906
v 0.167765 6.053408 0.254796
v -0.092443 6.094228 0.255722
v 0.026925 5.734255 -0.122500
v -0.112288 5.734230 -0.071036
v -0.127606 5.733885 0.060051
v 0.085769 5.734247 0.100889
v 0.137605 5.734231 -0.022697
v 0.081708 0.000009 -0.152493
v 0.186024 0.000003 -0.030418
v 0.152929 0.000018 0.106424
v -0.082883 0.000004 0.154669
v -0.186024 0.000003 0.030419
v -0.153060 0.000015 -0.105508
vn -0.5955 -0.5463 -0.5890
vn -0.7454 0.2823 0.6040
vn -0.5802 0.5342 -0.6148
vn 0.0077 -0.0059 -1.0000
vn 0.7424 0.2824 -0.6075
vn 0.5489 -0.5846 -0.5975
vn 0.5780 0.5347 0.6165
vn -0.0107 -0.0065 0.9999
vn 0.5959 -0.5452 0.5896
vn 0.0045 -0.9959 -0.0900
vn -0.0654 -0.9973 -0.0342
vn -0.2799 0.9594 0.0340
vn -0.5438 -0.5913 0.5956
vn 0.0361 -0.9982 0.0476
vn 0.2808 0.9591 -0.0341
vn 0.9758 0.0131 -0.2184
vn 0.3282 0.0061 -0.9446
vn 0.1880 0.0107 -0.9821
vn 0.5556 -0.6015 0.5740
vn 0.7673 -0.6145 -0.1835
vn -0.3321 0.0047 0.9432
vn 0.4739 0.0164 0.8804
vn -0.8078 0.0153 0.5892
vn -0.7683 -0.6154 0.1761
vn -0.5553 -0.6005 -0.5753
vn -0.7857 0.0093 -0.6186
vn 0.1438 -0.9896 -0.0041
vn -0.0991 -0.9950 0.0151
vn -0.0000 -1.0000 -0.0000
vt 0.975568 0.256282
vt 0.976588 0.268145
vt 0.996142 0.958717
vt 0.980318 0.213213
vt 0.913335 0.629447
vt 0.995993 0.996888
vt 0.911562 0.118923
vt 0.916555 0.255497
vt 0.916403 0.268394
vt 0.911503 0.046317
vt 0.975578 0.186175
vt 0.917512 0.344510
vt 0.949745 0.118967
vt 0.919865 0.621073
vt 0.920579 0.206315
vt 0.945326 0.715548
vt 0.928535 0.628212
vt 0.962546 0.197121
vt 0.913338 0.715548
vt 0.913335 0.543644
vt 0.949673 0.046466
vt 0.980382 0.143132
vt 0.916217 0.185158
vt 0.978039 0.344191
vt 0.923536 0.958776
vt 0.920646 0.136198
vt 0.919865 0.706877
vt 0.913338 0.793771
vt 0.923492 0.996960
vt 0.928535 0.542409
vt 0.962548 0.127020
vt 0.945326 0.793771
vt 0.840203 0.005008
vt 0.744084 0.005007
vt 0.951203 0.283203
vt 0.720415 0.004996
vt 0.928323 0.289454
vt 0.902183 0.005010
vt 0.927858 0.309472
vt 0.815510 0.004994
vt 0.887007 0.005017
vt 0.960221 0.315805
vt 0.862497 0.005008
vt 0.789946 0.005004
vt 0.969899 0.297495
vt 0.851203 0.005019
vt 0.753908 0.997119
vt 0.835961 0.997134
vt 0.915170 0.824494
vt 0.851044 0.997149
vt 0.930334 0.803597
vt 0.779190 0.997115
vt 0.866496 0.997134
vt 0.952594 0.806891
vt 0.875644 0.997134
vt 0.817507 0.997119
vt 0.965902 0.842826
vt 0.890728 0.997150
vt 0.950728 0.863627
vt 0.715570 0.997115
vt 0.906180 0.997134
vt 0.928557 0.860421
s 1
usemtl Windmill.004
f 3/7/1 7/21/2 5/13/3
f 6/18/4 2/4/5 1/1/6
f 9/26/7 10/31/8 8/23/9
f 11/35/10 12/37/11 3/9/1
f 10/30/12 5/14/3 7/20/2
f 8/24/9 4/12/13 14/42/14
f 6/17/15 9/27/7 2/5/5
f 6/19/15 10/32/12 9/28/7
f 8/25/9 2/6/5 9/29/7
f 15/46/16 16/48/17 11/33/18
f 15/46/16 18/53/19 17/50/20
f 19/56/21 18/52/19 14/44/22
f 19/55/21 13/41/23 20/58/24
f 13/41/23 21/61/25 20/58/24
f 12/36/26 11/34/18 21/60/25
f 16/47/17 21/60/25 11/34/18
f 3/7/1 4/10/13 7/21/2
f 1/1/6 3/8/1 6/18/4
f 5/15/3 6/18/4 3/8/1
f 10/31/8 7/22/2 4/11/13
f 4/11/13 8/23/9 10/31/8
f 3/9/1 1/2/6 11/35/10
f 15/45/27 11/35/10 1/2/6
f 3/9/1 12/37/11 13/39/28
f 4/12/13 3/9/1 13/39/28
f 15/45/27 1/2/6 8/24/9
f 14/42/14 15/45/27 8/24/9
f 4/12/13 13/39/28 14/42/14
f 6/19/15 5/16/3 10/32/12
f 8/25/9 1/3/6 2/6/5
f 15/46/16 17/50/20 16/48/17
f 15/46/16 14/43/22 18/53/19
f 19/56/21 14/44/22 13/40/23
f 13/41/23 12/38/26 21/61/25
f 18/54/19 19/57/29 16/49/29
f 16/49/29 19/57/29 21/62/25
f 19/57/29 20/59/24 21/62/25
f 16/49/29 17/51/20 18/54/19
